<?xml version="1.0" standalone="no"?>
<!DOCTYPE svg PUBLIC "-//W3C//DTD SVG 20010904//EN"
 "http://www.w3.org/TR/2001/REC-SVG-20010904/DTD/svg10.dtd">
<svg version="1.0" xmlns="http://www.w3.org/2000/svg"
 width="1000.000000pt" height="1000.000000pt" viewBox="0 0 1000.000000 1000.000000"
 preserveAspectRatio="xMidYMid meet">
<metadata>
Created by potrace 1.14, written by Peter Selinger 2001-2017
</metadata>
<g transform="translate(0.000000,1000.000000) scale(0.100000,-0.100000)"
fill="#000000" stroke="none">
<path d="M3117 9014 c-1 -1 -34 -4 -74 -8 -97 -8 -262 -48 -380 -92 -297 -111
-571 -324 -747 -582 -142 -209 -230 -428 -272 -677 -4 -22 -9 -323 -11 -670
-3 -480 -1 -641 8 -675 43 -155 192 -255 351 -235 74 9 163 59 209 117 71 91
70 77 73 750 2 332 6 613 9 624 3 12 8 37 11 55 26 161 156 388 292 508 126
112 303 201 447 227 17 2 35 8 41 12 6 4 290 8 631 8 341 1 638 5 659 8 138
22 249 145 261 289 11 126 -65 257 -183 313 l-57 28 -633 1 c-348 0 -634 0
-635 -1z"/>
<path d="M5616 9008 c-86 -18 -172 -87 -214 -172 -36 -70 -40 -175 -12 -250
31 -82 105 -156 185 -186 59 -22 66 -22 700 -24 551 -3 649 -5 705 -19 378
-95 632 -342 732 -712 20 -77 21 -102 24 -685 2 -696 2 -691 86 -781 47 -51
85 -75 152 -94 150 -44 308 31 376 177 l29 63 -3 655 c-2 435 -6 668 -14 695
-6 22 -13 54 -15 70 -14 93 -79 279 -138 398 -29 58 -134 226 -148 237 -3 3
-19 23 -36 44 -16 22 -63 74 -104 116 -249 251 -542 401 -901 461 -85 14
-1339 20 -1404 7z"/>
<path d="M3448 7658 c-176 -20 -333 -129 -409 -283 -45 -92 -59 -156 -55 -259
8 -225 144 -404 361 -477 289 -97 606 82 675 380 12 49 15 172 7 211 -39 174
-141 307 -292 380 -34 16 -76 32 -95 35 -96 18 -130 20 -192 13z"/>
<path d="M6674 7659 c-128 -12 -232 -60 -321 -146 -293 -287 -161 -782 236
-884 125 -32 239 -21 355 34 395 188 401 745 11 942 -87 44 -186 63 -281 54z"/>
<path d="M1864 5275 c-91 -27 -154 -80 -202 -170 l-27 -50 0 -665 c0 -366 4
-692 8 -725 29 -212 125 -475 231 -633 20 -30 36 -56 36 -59 0 -11 130 -163
192 -225 119 -117 302 -247 438 -310 132 -61 320 -120 430 -133 30 -4 59 -10
65 -13 5 -3 216 -7 468 -8 252 -1 461 -4 464 -8 3 -3 7 -338 7 -743 l1 -738
23 -49 c31 -68 65 -110 115 -144 59 -41 111 -55 192 -54 58 1 81 7 135 34 64
33 79 49 253 268 7 8 115 146 242 305 126 160 235 297 242 305 22 28 83 105
91 115 4 6 86 109 183 230 96 121 212 269 259 329 47 60 95 118 107 129 22 20
35 20 580 22 522 2 565 4 668 23 258 50 462 139 670 292 89 66 218 187 285
269 177 215 305 507 347 791 4 30 8 357 8 725 l0 670 -26 50 c-15 28 -44 67
-65 89 -116 119 -322 121 -446 4 -42 -39 -83 -114 -93 -171 -4 -20 -8 -315
-10 -655 -2 -637 -3 -659 -46 -791 -107 -334 -419 -597 -769 -647 -25 -4 -328
-8 -675 -9 -685 -3 -668 -1 -756 -60 -20 -13 -121 -131 -225 -262 -229 -289
-198 -250 -286 -359 -40 -51 -107 -136 -148 -189 -41 -53 -82 -105 -90 -114
-9 -9 -33 -38 -55 -66 -50 -64 -65 -78 -66 -68 -1 4 -2 202 -3 438 l-3 430
-25 56 c-41 90 -130 165 -218 185 -19 4 -309 8 -645 9 -682 2 -688 3 -861 74
-256 105 -457 320 -542 581 -47 142 -49 176 -49 808 -1 328 -4 615 -7 636 -18
113 -121 226 -230 253 -43 10 -134 9 -172 -2z"/>
<path d="M3370 4636 c-129 -36 -263 -141 -324 -256 -107 -198 -76 -450 75
-611 211 -225 584 -218 783 15 246 287 125 720 -235 842 -81 27 -219 32 -299
10z"/>
<path d="M6560 4627 c-264 -89 -409 -342 -355 -622 13 -66 84 -190 142 -247
49 -48 213 -151 213 -134 0 3 12 1 28 -5 15 -6 63 -12 107 -14 228 -12 436
124 517 337 62 164 36 356 -69 495 -71 95 -143 147 -261 189 -91 32 -228 33
-322 1z"/>
</g>
</svg>
